<svg xmlns="http://www.w3.org/2000/svg" viewBox="0 0 200 67" style="">
    <path fill="none" stroke="#000000" stroke-width="1" stroke-linecap="round" stroke-linejoin="round" d="M31.2 21.38q-1.16 1.85-2.8 3.15-1.65 1.23-3.56 1.98.75.36 1.3.97 1.3 1.5 1.3 3.56t-.28 3.9q-.34 2.13-.75 4.25-.33 2.06-.4 4.18 0 .75.07 1.58.07.82.48 1.5.4.55 1.02.7.7.06 1.3 0 .42-.08.62.2.2.2.2.54t-.2.62q-.2.27-.62.34-2.33.2-3.3-.96-.95-1.23-1.16-3-.2-1.86.07-3.85l.47-3.35q.2-1.1.34-2.2.22-1.1.36-2.2.07-.88.07-1.77.06-.95-.2-1.77-.35-.9-1.1-1.37-.7-.54-1.65-.75-.9-.2-1.85-.2-.96 0-1.78.07-.68.07-.82-.6-.14-.42.07-.84.2-.4.75-.34 3.3.13 6.23-1.24 2.95-1.44 4.66-4.38.9-1.65 1.3-3.43.4-1.85.27-3.63-.12-1.84-.88-3.5-.68-1.7-2.05-3.07-1.44-1.37-3.22-2.2-1.78-.8-3.7-1.1-1.9-.26-3.9-.06t-3.83.88q-3.84 1.37-6.44 4.46-2.54 3.08-3.5 6.98-.4 1.85-.47 4.04 0 2.12.55 4.18.55 2.05 1.72 3.76 1.16 1.72 3 2.74.35.2.42.55.06.33-.15.6-.13.28-.48.42-.27.14-.68-.07-1.38-.75-2.48-1.92-1.02-1.23-1.78-2.67-.75-1.44-1.23-3-.4-1.6-.54-3.1-.34-3.7.9-7.4 1.23-3.7 3.7-6.5Q8.87 4.4 12.43 2.9q3.56-1.52 7.2-1.6 3.7-.05 6.98 1.52 3.28 1.5 5.2 5 1.78 3.15 1.5 6.85-.2 3.7-2.12 6.7zm-7.87-11.5q-1.3.47-2.26 1.43-.9.97-1.5 2.2-.62 1.24-1.03 2.54-.42 1.3-.7 2.53-1.1 4.25-1.77 8.5-.62 4.24-1.5 8.55l-1.17 5.34q-.62 2.74-2.05 4.93-.96 1.43-2.33 2.05-1.3.6-3.02.07-.4-.14-.54-.4-.07-.36 0-.63.13-.35.34-.56.27-.2.68-.07 1.65.55 2.6-.4.96-1.03 1.58-2.47 1.16-2.88 1.78-5.96.62-3.08 1.16-6.16.76-4.04 1.37-8.08.7-4.1 2.06-8.02.82-2.26 2.12-4.17 1.3-1.98 3.7-2.87.4-.14.68.07.28.14.35.48.07.27-.07.6-.06.36-.47.5z" class="stroke-animation_0"></path>
    <path fill="none" stroke="#000000" stroke-width="1" stroke-linecap="round" stroke-linejoin="round" d="M49.57 40.83q.2-.35.55-.35.4-.06.7.14.26.14.33.48.14.27-.07.62-1.64 2.4-3.83 4.17-2.2 1.7-4.73 3l-.62 2.68q-.47 2.12-1.1 4.1-.54 2.06-1.63 3.9-.7 1.17-1.72 2.4-1.02 1.3-2.32 2.27-1.3.96-2.74 1.3-1.52.4-3.03-.2-1.16-.5-1.85-1.3-.75-.76-1.1-1.8-.33-1.02-.27-2.18.07-1.1.48-2.2 1.3-3.35 4.1-5.2 2.75-1.78 5.97-3 2.12-.83 4.3-1.86.36-1.63.63-3.2.27-1.65.62-3.23-.62 1.17-1.44 2.13-.74.96-1.77 1.7-.9.63-2 .83-1.08.14-2.1-.27-1.24-.48-1.86-1.5-.55-1.1-.68-2.34-.3-1.7-.08-3.42.2-1.78.55-3.5.48-2.2 1.02-4.24.6-2.12 1.3-4.18.06-.4.4-.55.35-.13.62 0 .34.07.55.35.2.2.07.6l-1.24 4.05q-.54 2.06-1.02 4.1-.34 1.6-.62 3.37-.2 1.78.14 3.42.2 1.1.9 1.92.67.75 1.9.48.96-.2 1.58-.82.7-.62 1.17-1.37 1.5-2.13 2.4-4.6.95-2.52 1.7-5 .4-1.1.62-2.25l.4-1.78q.22-.9.5-1.78.06-.4.33-.55.35-.14.62 0 .34.07.55.34.2.3.13.7-.06.14-.06.27 0 .14-.07.28-.14.68-.35 1.37-.13.68-.34 1.43-.68 3.1-1.23 6.24-.55 3.07-1.16 6.15-.15.96-.36 1.92l-.4 1.85q1.98-1.17 3.62-2.54 1.7-1.44 3-3.35zm-9.8 12.46l.42-1.72q.2-.82.34-1.7-.83.47-1.37.6-1.5.62-3.1 1.23-1.56.63-3 1.45t-2.6 1.92q-1.23 1.1-1.92 2.67-.4.96-.55 2.12-.13 1.17.2 2.13.35.95 1.17 1.5.76.6 2.2.4 1.57-.2 2.87-1.3t2.2-2.26q1.16-1.57 1.84-3.35.75-1.8 1.3-3.7z" class="stroke-animation_1"></path>
    <path fill="none" stroke="#000000" stroke-width="1" stroke-linecap="round" stroke-linejoin="round" d="M70.65 40.7q.2-.35.54-.42t.6.14q.28.13.42.47.14.27-.07.6-.96 1.65-2.32 3.1-1.37 1.43-3.36 1.77-1.37.2-2.53-.48-1.17-.7-1.72-2.06-.48-1.16-.48-2.6-.27.4-.47.82-.2.34-.55.68-.76 1.03-1.85 1.85-1.1.75-2.33 1.1-1.23.33-2.47.13-1.23-.2-2.32-1.24-1.03-.97-1.5-2.27-.5-1.37-.56-2.8-.08-1.5.2-2.95.2-1.44.6-2.67.42-1.36 1.18-2.8.82-1.5 1.85-2.67 1.1-1.23 2.46-1.98 1.36-.83 3-.9 2-.06 3.22.96 1.24 1.04 1.85 2.62l.14-.4.15-.5q.07-.4.4-.47.35-.14.62-.07.35.07.55.34.2.27.07.7-.5 1.36-.83 2.86l-.7 2.88q-.33 1.78-.74 3.63-.4 1.77-.27 3.55.07.55.2 1.16.14.56.4 1.04.36.4.83.68t1.16.2q1.57-.2 2.67-1.43 1.16-1.3 1.92-2.6zm-10.62.13q1.03-1.78 1.65-3.63.68-1.92 1.23-3.9.15-1.38-.06-2.75-.2-1.43-1.3-2.4-.9-.75-2.06-.8-1.1-.15-2.12.33-1.37.6-2.46 1.7-1.03 1.1-1.78 2.48-.7 1.3-1.17 2.8-.4 1.5-.48 2.95-.13 1.24-.07 2.6.14 1.38.9 2.4.68.97 1.77 1.38 1.17.4 2.26.07 1.24-.35 2.13-1.24.9-.95 1.57-1.97z" class="stroke-animation_2"></path>
    <path fill="none" stroke="#000000" stroke-width="1" stroke-linecap="round" stroke-linejoin="round" d="M89.54 40.83q.2-.35.54-.35.4-.06.7.14.26.14.33.4.15.3-.06.63-.82 1.3-1.98 2.6-1.1 1.23-2.47 1.85-1.17.55-2.34.34-1.16-.2-1.7-1.37-.5-.96-.5-2.05 0-1.17.15-2.13.15-1.37.35-2.74.27-1.44.55-2.8l.4-2.6q.2-1.32.15-2.68-.07-.83-.35-1.58-.2-.82-1.16-1.03-2.2-.48-3.84.48-1.57.96-2.6 2.88-1.78 3.35-2.53 7.2-.75 3.76-1.3 7.45-.07.14-.07.28v-.07.13q-.07.34-.34.47-.28.14-.55.14-.33-.07-.54-.27-.27-.28-.27-.62.6-4.93 1.43-9.8.9-4.92 1.84-9.85.07-.4.35-.55.34-.14.6 0 .36.07.56.34.2.27.14.68l-.62 3.28.07-.06q0-.07.07-.14 1.16-1.78 2.87-2.95 1.73-1.15 4-.88.95.14 1.84.48.95.35 1.5 1.3.55.96.62 2.06.07 1.1-.07 2.2-.22 2.66-.83 5.33-.62 2.66-.7 5.4v.82q.08.48.22.9.13.4.4.6.34.22.9.08 1.36-.4 2.4-1.58 1.08-1.23 1.84-2.4zM128.05 40.35q.27-.35.55-.28.34 0 .55.28.27.2.34.54.06.34-.22.68-1.57 2-3.76 2.94-2.13.96-4.6-.34-.8 1.7-1.84 3.3-1.03 1.5-2.33 2.87-1.37 1.36-3.15 2.4-1.7 1.1-3.7.95-1.7-.07-3.22-.9-1.5-.8-2.4-2.32-.68-1.23-.95-2.6-.28-1.44-.14-2.8.13-1.45.6-2.82.5-1.37 1.3-2.46 1.1-1.37 2.47-2 1.37-.6 2.88-.6 1.5-.07 3 .4 1.52.5 2.9 1.3.95.63 1.84 1.38.95.75 1.9 1.44.9-2.06 1.44-4.1.62-2.13 1.17-4.26 1.45-6.16 2.13-12.32l1.5-12.47Q124.9 10.5 123 12q-1.92 1.43-3.9 2.8l-2.26 1.58q-1.1.75-1.78 1.92-.75 1.16-.48 2.26.27 1.1.96 2.2.2.33.07.67-.08.28-.36.48-.27.15-.68.15-.34-.07-.55-.4-.74-1.18-1.08-2.55-.35-1.43.2-2.8.48-1.24 1.44-2.13 1.03-.95 2.05-1.7 1.45-1.04 2.96-2.06 1.5-1.02 2.87-2.18 1.37-1.17 2.47-2.47 1.16-1.37 1.85-3.15.14-.34.27-.4.34-.5.96-.22.7.28.55 1.03-.9 6.04-1.44 12-.56 5.95-1.72 11.98-.62 3.36-1.5 6.85-.83 3.5-2.2 6.78 0 .08.07.08 2 .95 3.5.13 1.57-.88 2.8-2.45zM112.7 51.37q1.6-.82 2.75-2.12 1.23-1.3 2.2-2.8.54-.76.95-1.58.4-.83.82-1.65-1.7-1.16-3.35-2.4-1.58-1.23-3.7-1.77-2.06-.55-3.84.2-1.78.75-2.74 2.67-.83 1.7-.96 3.9-.14 2.2.95 3.77 1.1 1.77 3.08 2.25t3.83-.48z" class="stroke-animation_3"></path>
    <path fill="none" stroke="#000000" stroke-width="1" stroke-linecap="round" stroke-linejoin="round" d="M137.25 40.7q.2-.35.55-.35.34-.07.6.07.3.13.35.47.14.34-.06.68-.56.82-1.38 1.85-.83.96-1.85 1.7-1.03.76-2.2 1.1-1.1.28-2.25-.2-1.5-.62-2.13-1.92-.55-1.36-.7-2.86-.26-3.56.63-7.06.95-3.5 1.9-6.9.08-.42.36-.5.33-.13.6-.06.34.07.55.34.2.28.14.7-.84 2.86-1.6 5.8-.74 2.88-.88 5.9-.07 1.1 0 2.53.14 1.36 1.1 2.18.82.62 1.7.4.97-.26 1.86-.88.9-.68 1.57-1.5.7-.9 1.1-1.5zm-4.52-18.43q.55.07.75.4.2.28.14.7 0 .34-.28.68-.27.34-.68.34-.55 0-.82-.35-.2-.34-.2-.75 0-.42.27-.76.28-.34.83-.27z" class="stroke-animation_4"></path>
    <path fill="none" stroke="#000000" stroke-width="1" stroke-linecap="round" stroke-linejoin="round" d="M157.98 40.7q.2-.35.55-.42.34-.07.62.14.27.13.4.47.15.27-.06.6-.97 1.65-2.34 3.1-1.37 1.43-3.35 1.77-1.36.2-2.53-.48-1.16-.7-1.7-2.06-.5-1.16-.5-2.6-.26.4-.47.82-.2.34-.54.68-.76 1.03-1.85 1.85-1.1.75-2.32 1.1-1.23.33-2.47.13-1.22-.2-2.32-1.24-1.02-.97-1.5-2.27-.48-1.37-.55-2.8-.07-1.5.2-2.95.2-1.44.62-2.67.4-1.36 1.17-2.8.82-1.5 1.84-2.67 1.1-1.23 2.47-1.98 1.37-.83 3-.9 2-.06 3.23.96 1.23 1.04 1.85 2.62l.15-.4.13-.5q.07-.4.42-.47.34-.14.6-.07.35.07.56.34.2.27.07.7-.48 1.36-.82 2.86l-.68 2.88q-.34 1.78-.75 3.63-.4 1.77-.28 3.55.06.55.2 1.16.14.56.4 1.04.35.4.83.68t1.17.2q1.57-.2 2.67-1.43 1.16-1.3 1.9-2.6zm-10.6.13q1.02-1.78 1.63-3.63.7-1.92 1.25-3.9.13-1.38-.07-2.75-.2-1.43-1.3-2.4-.9-.75-2.06-.8-1.1-.15-2.12.33-1.37.6-2.47 1.7-1.02 1.1-1.78 2.48-.68 1.3-1.16 2.8-.42 1.5-.5 2.95-.13 1.24-.06 2.6.14 1.38.9 2.4.68.97 1.77 1.38 1.18.4 2.27.07 1.24-.35 2.13-1.24.9-.95 1.57-1.97z" class="stroke-animation_5"></path>
    <path fill="none" stroke="#000000" stroke-width="1" stroke-linecap="round" stroke-linejoin="round" d="M176.87 40.83q.2-.35.55-.35.4-.06.7.14.26.14.33.4.14.3-.07.63-.82 1.3-2 2.6-1.08 1.23-2.45 1.85-1.17.55-2.33.34-1.16-.2-1.7-1.37-.5-.96-.5-2.05 0-1.17.15-2.13.13-1.37.34-2.74.26-1.44.54-2.8l.4-2.6q.2-1.32.14-2.68-.06-.83-.34-1.58-.2-.82-1.16-1.03-2.2-.48-3.84.48-1.57.96-2.6 2.88-1.78 3.35-2.53 7.2-.75 3.76-1.3 7.45-.06.14-.06.28v-.07.13q-.07.34-.35.47-.28.14-.55.14-.35-.07-.55-.27-.28-.28-.28-.62.62-4.93 1.44-9.8.9-4.92 1.85-9.85.08-.4.35-.55.35-.14.62 0 .34.07.55.34.2.27.14.68l-.62 3.28.07-.06q0-.07.08-.14 1.16-1.78 2.87-2.95 1.7-1.15 3.97-.88.96.14 1.85.48.96.35 1.5 1.3.56.96.63 2.06.06 1.1-.07 2.2-.2 2.66-.82 5.33-.6 2.66-.68 5.4v.82q.07.48.2.9.14.4.42.6.34.22.9.08 1.36-.4 2.38-1.58 1.1-1.23 1.85-2.4z" class="stroke-animation_6"></path>
    <path fill="none" stroke="#000000" stroke-width="1" stroke-linecap="round" stroke-linejoin="round" d="M196.48 40.83q.2-.35.54-.35.4-.06.7.14.26.14.33.48.14.27-.07.62-1.64 2.4-3.83 4.17-2.2 1.7-4.73 3l-.6 2.68q-.5 2.12-1.1 4.1-.56 2.06-1.65 3.9-.7 1.17-1.72 2.4-1.02 1.3-2.32 2.27-1.3.96-2.8 1.3-1.45.4-2.96-.2-1.16-.5-1.85-1.3-.75-.76-1.1-1.8-.33-1.02-.26-2.18.06-1.1.47-2.2 1.3-3.35 4.04-5.2 2.8-1.78 6.03-3 2.12-.83 4.32-1.86.4-2.18.82-4.23.4-2.13.82-4.25-.7 1.23-1.58 2.53-.9 1.3-1.98 2.33-1.03.96-2.33 1.44-1.23.48-2.67.14-1.5-.35-2.4-1.37-.9-1.04-1.23-2.34-.4-1.37-.4-2.8 0-1.52.2-2.75.27-1.5.88-3.07.7-1.57 1.65-2.94 1.02-1.38 2.26-2.48 1.23-1.1 2.74-1.7 2.05-.83 3.97-.3 1.98.5 3.08 2.27.14-.35.2-.76.07-.4.2-.82.08-.4.35-.55.35-.14.62 0 .34.07.55.34.2.3.13.7-.95 3.9-1.7 7.87-.76 3.9-1.5 7.88-.15.96-.36 1.92l-.4 1.85q1.98-1.17 3.62-2.54 1.7-1.44 3.02-3.35zm-5.9-7.8q.07-.08.07-.15l.14-.13q.13-.55.2-1.03.07-.55.2-1.1-.48-.13-.55-.54-.68-2.2-2.6-2.47-1.92-.26-3.7.83-2.32 1.37-3.83 3.97-1.5 2.6-1.78 5.28-.14 1.16-.07 2.4.07 1.23.62 2.25.53.96 1.5 1.5 1.02.56 2.18.2 1.3-.4 2.26-1.56.96-1.16 1.72-2.33 1.1-1.64 1.98-3.42.9-1.85 1.65-3.7zm-3.9 20.26l.4-1.72q.22-.82.36-1.7-.83.47-1.37.6-1.5.62-3.1 1.23-1.56.63-3 1.45t-2.6 1.92q-1.23 1.1-1.92 2.67-.4.96-.55 2.12-.13 1.17.2 2.13.35.95 1.17 1.5.76.6 2.2.4 1.57-.2 2.87-1.3t2.2-2.26q1.16-1.57 1.84-3.35.75-1.8 1.3-3.7z" class="stroke-animation_7"></path>
<style>
	:root {
  --delay: 2500ms;
	}

	.stroke-animation_0
	{
		stroke-dasharray:312 314;
		stroke-dashoffset:313;
		animation:stroke-animation_draw 3000ms ease-in-out var(--delay) forwards;
	}
	.stroke-animation_1
	{
		stroke-dasharray:216 218;
		stroke-dashoffset:217;
		animation:stroke-animation_draw 3000ms ease-in-out var(--delay) forwards;
	}
	.stroke-animation_2
	{
		stroke-dasharray:135 137;
		stroke-dashoffset:136;
		animation:stroke-animation_draw 3000ms ease-in-out var(--delay) forwards;
	}
	.stroke-animation_3
	{
		stroke-dasharray:358 360;
		stroke-dashoffset:359;
		animation:stroke-animation_draw 3000ms ease-in-out var(--delay) forwards;
	}
	.stroke-animation_4
	{
		stroke-dasharray:67 69;
		stroke-dashoffset:68;
		animation:stroke-animation_draw 3000ms ease-in-out var(--delay) forwards;
	}
	.stroke-animation_5
	{
		stroke-dasharray:135 137;
		stroke-dashoffset:136;
		animation:stroke-animation_draw 3000ms ease-in-out var(--delay) forwards;
	}
	.stroke-animation_6
	{
		stroke-dasharray:122 124;
		stroke-dashoffset:123;
		animation:stroke-animation_draw 3000ms ease-in-out var(--delay) forwards;
	}
	.stroke-animation_7
	{
		stroke-dasharray:237 239;
		stroke-dashoffset:238;
		animation:stroke-animation_draw 3000ms ease-in-out var(--delay) forwards;
	}
	@keyframes stroke-animation_draw
	{
		100%{stroke-dashoffset:0;}
	}
</style></svg>
