<svg xmlns="http://www.w3.org/2000/svg" viewBox="0 0 200 67">
  <g fill="none" stroke="#000000" stroke-width="1.75" stroke-linecap="round" stroke-linejoin="round">
    <path d="M9.15 31.3s-13.96-9.87-.8-24.44c13.17-14.56 29.5 3.5 22.8 12.5-6.73 9-11.87 7.02-11.87 7.02s7.95-.47 6.75 7.78c-1.2 8.25-1.37 13.36 2.27 14.06"/>
    <path d="M23.05 9.07s-5.38-.84-7.98 18.98c-2.6 19.8-6.95 19.64-8.8 19.37M36.08 26.7s-5.9 15.4-1 18.12c4.9 2.7 7.65-6.32 8.22-7.9.57-1.56 2.74-9.58 2.74-9.58l-5.08 25.6s-.77 3.54-3.2 6.88c-2.45 3.34-2.85 3.3-5.52 4-2.67.7-4.9-2.8-4.9-2.8s-1.68-5.18 6.34-8.8c8-3.6 14.06-7.04 16.73-10.74M63.88 31.8s-1.74-7.76-8.32-4.56-5.1 11.16-5 11.8c.1.63.15 7.18 6.33 5.9 6.18-1.26 7.95-17.17 7.95-17.17s-3.8 16.3-.37 17.3c3.44 1.02 4.64-1.56 4.64-1.56s1.64-2.22 3.3-9.8c1.68-7.6 1.9-8.35 1.9-8.35l-2.96 19.4s-.33 1.14-.6.3c-.27-.83 3.57-14.1 3.57-14.1s1.47-5.08 6.95-4.47c5.48.6 2.9 8.05 2.9 8.05s-3.46 11 .34 11.1c3.8.1 5.75-4.25 5.75-4.25M115.24 23.9s-5.23-5.1 2.33-8.82c7.55-3.7 10.02-10.12 10.02-10.12s-1.95 19.54-3.3 25.62c-1.32 6.08-3.53 15.87-10.58 21.15-7.05 5.28-9.65-4.07-9.65-4.07s-1.44-7.6 4.98-9.12c6.4-1.54 10.15 3.87 10.15 3.87s4 5.46 7.7.55c3.66-4.92 3.84-15.68 3.84-15.68s-4.96 17.7 1.02 18.25c5.98.53 6.15-6.02 6.15-6.02s.38-12.02 8.13-12.66c7.75-.63 4.38 10 4.38 10s-.9 6.4-7.68 8.1c-6.78 1.7-4.04-10.65-4.04-10.65"/>
    <path d="M152.64 28.45s-5.44 15.23-.9 16.67c4.55 1.43 7.02-4 7.02-4"/>
    <path d="M161.4 26.07s-2.65 19.75-3.3 19.62c-.68-.15 3.06-13.75 3.2-13.78.13-.03 1.63-5.75 7.25-5.65 5.6.1 2.77 9.3 2.77 9.3s-3.3 10.72 1.04 10.15c4.34-.57 5.75-5.1 5.75-5.1"/>
    <path d="M191.57 29.45s-2.4-5.35-8.66-.97c-6.23 4.38-4.8 12.14-4.8 12.14s1.44 6.9 5.95 3.53c4.5-3.38 8.02-12.86 8.02-12.86s2.4-6.03 1.03-4.06c-1.37 1.97-4.67 24-4.67 24s-1.3 9.58-7.56 12.9c-6.24 3.3-7.25-3.65-7.25-3.65s-1.4-7.57 11.43-10.2c12.83-2.64 12.2-9.16 12.2-9.16M132.5 23.03s-.4 1.14.37.74c.75-.4.3-1.75-.37-.74z"/>
  </g>
</svg>
