<svg xmlns="http://www.w3.org/2000/svg" viewBox="0 0 169 48">
<g fill="none" stroke="#000000" stroke-width="1" stroke-linecap="round" stroke-linejoin="round">
    <path d="M56.04 12.75q.08 3.58-.14 7.1-.2 3.5-.8 7-.42 3.23-1.2 6.3-.8 3.1-2.08 6.02-1 2.15-2.43 4.23-1.45 2.07-3.67 3.08-1.14.5-2.36.7-1.15.16-2.36-.42-1.28-.57-2.14-1.7-.8-1.16-1.22-2.45l-.14-.35q0-.2-.07-.43-.3.43-.36.65-.93 1.36-2.22 2.5-1.3 1.08-2.94 1.36-1.28.3-2.64.15t-2.58-.8q-2.07-1.14-2.64-3.36-.58-2.22-.58-4.36.07-3.23.58-6.3l1-6.24q.5-3.22.8-6.58.34-3.37-.3-6.6-.3-1.5-.93-3-.64-1.57-1.64-2.8-1-1.2-2.36-2.07-1.36-.93-3-1.14-3.23-.43-6.17 1.14-2.86 1.58-4.8 3.94-2.3 2.73-3.22 6.45-.85 3.73 0 7.24.66 2.57 2.38 4.5 1.8 1.93 4.3 2.8 1.7.56 3.72.7 2.07.15 3.72-.78.36-.22.72-.07.35.14.5.43.14.2.07.57 0 .36-.35.57-2.15 1.22-4.87 1.08-2.72-.22-4.87-1.15-3.2-1.36-5.14-4.08-1.87-2.72-2.22-6.16-.36-3.57.64-7.08 1.07-3.5 3.37-6.23 2-2.37 4.8-4.02 2.8-1.64 6-1.72 3.45 0 6.02 2 2.58 1.94 4 4.95 1.23 2.87 1.37 6.03.22 3.07-.07 6.15-.36 3.37-.93 6.66-.57 3.3-.93 6.66-.2 1.43-.35 2.8-.07 1.36.07 2.8.08 1 .3 2.06.2 1 .85 1.8.72.78 1.65 1.14 1 .36 2.07.36 1.64 0 2.93-.8 1.36-.78 2.22-2.2.86-1.37 1.5-3.02-.43-3.43.08-6.87.5-3.5 1.28-6.73v-.07q.1-.08.1-.15.06-.35.34-.5.3-.14.58-.14.35 0 .57.2.28.23.28.66.14 2.43 0 4.87-.15 2.44-.5 4.88-.15 1-.36 2-.22.93-.58 1.94.15.7.15 1.14.2 1 .56 2.08.36 1.07.93 1.93.56.8 1.42 1.22.93.35 2.22 0 2.3-.66 3.73-2.52 1.5-1.93 2.43-4 1.36-2.87 2.08-5.95.8-3.15 1.22-6.3.57-3.44.7-6.8.23-3.44.15-6.88-.14-2.72-.35-5.44-.22-2.7-1-5.36-.15-.43.07-.72.2-.3.5-.36.35-.07.64.07.37.08.5.5.8 2.73 1.02 5.6.28 2.86.42 5.72zM72.8 40.53q.23-.35.6-.35.4-.08.7.14.3.14.36.43.14.3-.07.64-1.6 2.28-4.1 3.72-2.5 1.43-5.3 1.3-2.64-.16-4.72-1.3-2-1.22-3-3.66-.72-1.7-.87-3.58-.13-1.93.3-3.72.36-1.86 1.22-3.58t2.15-3q.93-.94 2.14-1.65 1.3-.72 2.66-1 1.36-.3 2.72 0 1.37.28 2.5 1.28.94.87 1.3 2.02.43 1.14.3 2.36-.08 1.22-.6 2.43-.42 1.16-1.13 2.1-2.08 2.7-5.1 4-2.92 1.22-6.22 1.15.3.7.5 1 1.08 2.08 2.94 2.86 1.86.73 3.87.52 2-.3 3.86-1.36 1.87-1.08 3-2.73zm-9.87-12.96q-1.22.8-2.22 2.08-.92 1.22-1.56 2.65-.65 1.43-.94 3.08-.2 1.57 0 3.08h1.87q.93-.07 1.86-.3 1.36-.28 2.72-1 1.43-.7 2.58-1.7 1.2-1 1.93-2.3.8-1.36.8-2.94 0-1.43-.73-2.22-.7-.86-1.8-1.14-1.06-.36-2.28-.15-1.22.23-2.22.87z"/>
    <path d="M88.9 40.53q.2-.35.56-.35.36-.08.65.07.3.14.37.5.14.3-.08.64-1 1.5-2.37 2.8-1.36 1.2-3 2-1.58.7-3.37 1-1.8.2-3.65-.3-1.43-.42-2.43-1.28-.93-.93-1.5-2.15-.5-1.22-.65-2.58-.2-1.44-.14-2.8.14-3.22 1.3-6.52 1.13-3.36 3.78-5.44.93-.72 2.08-1.22t2.36-.28q1.44.28 2.15 1.36.8 1 .65 2.43-.08.43-.36.57-.3.15-.65.08-.3-.15-.58-.36-.2-.3-.14-.72.07-.57-.22-.93-.28-.36-.7-.5-.44-.14-.94-.14-.5 0-.94.14-1 .43-1.86 1.22-.86.78-1.5 1.63-1.36 2.08-2.08 4.6-.64 2.42-.64 4.86 0 1.06.2 2.14.23 1.07.66 2 .5.86 1.3 1.5.77.58 2 .8 3 .42 5.5-.94 2.58-1.36 4.23-3.87z" />
    <path d="M103.7 40.68q.2-.36.56-.36.43-.07.72.14.28.15.36.5.14.3-.08.65-1 1.5-2.5 2.87-1.43 1.3-3.15 2.08-1.7.8-3.65.86-1.86.08-3.72-.78-1.22-.64-1.93-1.5-.72-.86-1.08-1.94-.43-1.07-.5-2.22-.07-1.2 0-2.43.15-2.87.57-5.66.42-2.8 1-5.58.7-3.02 1.57-5.96.86-3 2.08-5.87.86-2 1.93-4.08 1.15-2.16 3-3.45 1.37-.93 2.8-.64 1.5.3 1.87 2.08.5 2.3-.08 4.8-.5 2.5-1.07 4.8-1.8 6.6-4.87 12.82-1.3 2.58-2.86 5.15-1.58 2.58-3.87 4.44-.14.14-.3.14.08.14.08.35l.15.35q.43 1.72 1.93 2.5 1.58.8 3.3.8 2.43.07 4.43-1.44 2.07-1.56 3.3-3.42zM93.72 21.4q-1.8 5.9-2.8 12.2-.13 1.35-.35 2.85-.2 1.43-.2 2.94 1.85-1.87 3.2-4.17 1.37-2.3 2.52-4.58 1.43-3 2.65-6.16 1.2-3.23 2.07-6.45.36-1.36.65-2.65.28-1.36.43-2.8.07-.78.07-1.64.07-.86-.3-1.65-.13-.27-.42-.27-.35-.15-.86.14-.72.36-1.3 1-.5.57-1 1.22-1.5 2.28-2.58 4.86-1 2.5-1.8 5.15z" />
    <path d="M122.17 40.6q.22-.35.58-.35.42-.07.7.14.3.13.37.42.14.3-.14.64-1.44 2.15-3.8 2.65-2.36.44-4.58-.5l-.43.6q-.22.2-.5.42-1.86 1.5-4.37 1.64-2.5.15-4.37-1.72-1.22-1.28-1.8-3-.56-1.72-.56-3.5-.07-1.87.36-3.66.35-1.87 1.07-3.37 1.43-2.7 4-4.5 2.66-1.8 5.88-1.5.43.07.65.35.2.3.2.65 0 .36-.2.64-.22.22-.65.14-2.22-.2-4 .72-1.73.86-3.02 2.44-1.2 1.5-1.86 3.5-.64 2-.64 3.94 0 1 .14 2.08.14 1 .5 2 .43.94 1.08 1.72.64.72 1.7 1.08 2.52.8 4.45-.8.22-.13.36-.35l.35-.35q-1.07-.7-1.8-1.64-1.64-2.14-2.28-5-.65-2.94.43-5.52.43-1 1.22-1.72.78-.7 1.7-1 .95-.36 1.95-.14 1.07.14 1.93.86.8.64 1.15 1.57.43.93.57 2 .22 1 .14 2.08 0 1-.14 1.94-.2 1.5-.8 3.07-.5 1.5-1.28 2.87 1.58.58 3.15.3 1.57-.36 2.57-1.8zm-10.52-3.72q.43 1.36 1.14 2.58.78 1.15 2 1.93.93-1.44 1.43-3 .5-1.6.64-3.17.07-.64 0-1.64 0-1-.28-1.87-.23-.93-.8-1.58-.5-.72-1.43-.72-1.36-.07-2.08.8-.73.78-1 2-.23 1.14-.08 2.5.14 1.3.43 2.15z" />
    <path d="M150.44 40.53q.22-.35.58-.35.36-.08.64.07.3.14.43.5.13.3-.08.64-1 1.5-2.43 3.14-1.45 1.65-3.3 2.08-1.23.3-2.37-.14-1.08-.5-1.5-1.72-.44-1-.36-2.15.07-1.14.2-2.2.5-2.73 1.3-5.38.86-2.72.86-5.44-.07-.8-.3-1.65-.2-.86-1.2-1.15-1.44-.35-2.65.22-1.15.57-1.94 1.8-1.07 1.64-1.72 3.5-.57 1.8-1 3.65l-.3 1q-.06.5-.2 1l-.72 3.8-.57 3.8q-.07.43-.43.57-.28.14-.64.07-.3-.15-.5-.44-.22-.3-.15-.7.37-2.1.66-4.17.28-2.08.78-4.16v-.14q.3-1.58.5-3.16.22-1.57.22-3.15-.07-.87-.3-1.87-.13-1.07-1-1.5-1.06-.57-2.28-.07-1.58.57-2.5 2.22-.94 1.64-1.5 3-1.23 3.3-1.94 6.74-.72 3.36-1.3 6.8v.28q-.06.36-.35.5-.3.15-.58.15-.36-.07-.58-.3-.28-.27-.28-.63.64-5.16 1.5-10.24.93-5.16 1.93-10.3.07-.44.35-.6.36-.13.65 0 .36.1.57.37.22.3.14.72l-.63 3.43q.8-1.36 1.86-2.5 1.15-1.22 2.72-1.5.93-.15 1.8-.08.85.07 1.64.65.92.64 1.28 1.72.36 1 .5 2.13 1-2.07 2.65-3.43 1.65-1.43 4.15-1 1.36.2 2.08.93.72.7 1 1.7.36 1.02.3 2.16 0 1.14-.23 2.2-.43 2.66-1.3 5.38-.77 2.65-.77 5.37 0 1 .5 1.8.5.7 1.72.28 1.43-.57 2.5-1.8 1.08-1.28 1.86-2.5z" />
    <path d="M166.38 40.53q.2-.35.57-.35.43-.08.72.14.3.14.36.43.14.3-.07.64-1.58 2.28-4.1 3.72-2.5 1.43-5.3 1.3-2.64-.16-4.7-1.3-2.02-1.22-3.02-3.66-.72-1.7-.86-3.58-.14-1.93.3-3.72.35-1.86 1.2-3.58.86-1.72 2.15-3 .93-.94 2.15-1.65 1.3-.72 2.65-1 1.36-.3 2.72 0 1.36.28 2.5 1.28.94.87 1.3 2.02.43 1.14.28 2.36-.07 1.22-.57 2.43-.43 1.16-1.14 2.1-2.08 2.7-5.1 4-2.92 1.22-6.22 1.15.3.7.5 1 1.08 2.08 2.94 2.86 1.86.73 3.87.52 2-.3 3.87-1.36 1.86-1.08 3-2.73zm-9.88-12.96q-1.22.8-2.22 2.08-.93 1.22-1.58 2.65-.64 1.43-.93 3.08-.2 1.57 0 3.08h1.86q.93-.07 1.87-.3 1.36-.28 2.72-1 1.43-.7 2.57-1.7 1.2-1 1.93-2.3.8-1.36.8-2.94 0-1.43-.73-2.22-.72-.86-1.8-1.14-1.07-.36-2.28-.15-1.22.23-2.22.87z" />
  </g>
</svg>
